<svg width="152" height="115" viewBox="0 0 152 115" fill="none" xmlns="http://www.w3.org/2000/svg">
<path d="M110.45 36.2889L80.4387 6.28436C80.4267 6.27236 80.4187 6.26436 80.4067 6.25636C80.3467 6.19634 80.2826 6.14432 80.2226 6.08831C80.1746 6.0483 80.1265 6.00429 80.0785 5.96427C80.0225 5.92026 79.9625 5.88025 79.9024 5.83624C79.8424 5.79222 79.7864 5.74821 79.7224 5.7082C79.6743 5.67619 79.6183 5.64819 79.5703 5.61618C79.4983 5.57217 79.4262 5.52815 79.3542 5.49214C79.3021 5.46414 79.2501 5.44413 79.1981 5.42013C79.1221 5.38412 79.046 5.3441 78.966 5.31609C78.906 5.29209 78.8379 5.27208 78.7779 5.24807C78.7058 5.22406 78.6378 5.19606 78.5658 5.17605C78.4978 5.15605 78.4297 5.14404 78.3617 5.12403C78.2896 5.10803 78.2216 5.08803 78.1496 5.07602C78.0855 5.06402 78.0175 5.05601 77.9535 5.04801C77.8734 5.03601 77.7974 5.02401 77.7174 5.01601C77.6573 5.01201 77.5973 5.012 77.5373 5.008C77.4492 5.004 77.3652 5 77.2771 5C77.2611 5 77.2491 5 77.2331 5L61.9015 5.31209C61.8535 5.31209 61.8094 5.32009 61.7614 5.32409C61.6774 5.32809 61.5933 5.3321 61.5093 5.3401C61.4413 5.3481 61.3772 5.36011 61.3092 5.36811C61.2332 5.38011 61.1571 5.39211 61.0851 5.40811C61.017 5.42412 60.949 5.44012 60.881 5.46013C60.809 5.48013 60.7409 5.49615 60.6689 5.52015C60.6008 5.54016 60.5368 5.56416 60.4688 5.58817C60.4008 5.61217 60.3327 5.64019 60.2647 5.66819C60.2006 5.6962 60.1406 5.72421 60.0806 5.75622C60.0126 5.78823 59.9445 5.82423 59.8765 5.86024C59.8165 5.89225 59.7604 5.92826 59.7004 5.96427C59.6364 6.00429 59.5723 6.04429 59.5083 6.0843C59.4483 6.12432 59.3922 6.16833 59.3362 6.20834C59.2802 6.25235 59.2202 6.29637 59.1641 6.34038C59.1041 6.3924 59.0481 6.44441 58.992 6.49642C58.956 6.53243 58.912 6.56444 58.876 6.60045L41.5113 23.9614C39.7905 25.6819 39.7905 28.4667 41.5113 30.1871L68.4047 57.0748C70.1256 58.7952 72.911 58.7952 74.6318 57.0748C76.3527 55.3543 76.3527 52.5695 74.6318 50.849L69.8334 46.0516L88.7949 27.0943L104.219 42.5146C105.939 44.2351 108.725 44.2351 110.446 42.5146C112.17 40.7941 112.17 38.0094 110.45 36.2889ZM63.6143 39.8259L50.86 27.0743L63.8585 14.0786L75.5443 13.8385L82.5758 20.8685L63.6143 39.8259Z" fill="#395588"/>
<path d="M110.448 36.2889C108.727 34.5684 105.942 34.5684 104.221 36.2889L82.15 58.3552L72.9494 49.1565C71.2285 47.4361 68.4431 47.4361 66.7223 49.1565C65.0014 50.877 65.0014 53.6618 66.7223 55.3823L79.0324 67.6898C80.7533 69.4103 83.5386 69.4103 85.2595 67.6898L110.444 42.5107C112.169 40.7942 112.169 38.0094 110.448 36.2889Z" fill="#EC5619"/>
<path d="M7.40119 83.3608C8.00149 83.3608 8.53375 83.5809 8.99398 84.017C9.45821 84.4532 9.68633 84.9973 9.68633 85.6495V107.32C9.68633 107.968 9.45021 108.512 8.97397 108.952C8.49774 109.388 7.94947 109.608 7.32516 109.608C6.62481 109.608 6.06053 109.388 5.63631 108.952C5.2121 108.516 5 107.972 5 107.32V85.6495C5 85.0013 5.22411 84.4572 5.67634 84.017C6.12856 83.5809 6.70085 83.3608 7.40119 83.3608ZM7.28914 94.2719H24.0135V98.5811H7.28914V94.2719ZM24.0135 83.3608C24.7138 83.3608 25.2741 83.5809 25.7023 84.017C26.1265 84.4532 26.3386 84.9973 26.3386 85.6495V107.32C26.3386 107.968 26.1185 108.512 25.6823 108.952C25.2461 109.388 24.6618 109.608 23.9374 109.608C23.3371 109.608 22.8049 109.388 22.3446 108.952C21.8804 108.516 21.6523 107.972 21.6523 107.32V85.6495C21.6523 85.0013 21.8884 84.4572 22.3646 84.017C22.8369 83.5809 23.3891 83.3608 24.0135 83.3608Z" fill="#395588"/>
<path d="M48.0109 89.1706C48.6593 89.1706 49.1955 89.3827 49.6237 89.8068C50.0479 90.2309 50.26 90.783 50.26 91.4552V107.312C50.26 107.96 50.0479 108.504 49.6237 108.944C49.1995 109.38 48.6593 109.6 48.0109 109.6C47.3626 109.6 46.8223 109.38 46.3981 108.944C45.9739 108.508 45.7618 107.964 45.7618 107.312V105.475L46.5862 105.811C46.5862 106.135 46.4101 106.532 46.062 106.992C45.7098 107.456 45.2376 107.912 44.6373 108.36C44.037 108.808 43.3326 109.192 42.5202 109.504C41.7078 109.816 40.8273 109.972 39.8749 109.972C38.15 109.972 36.5892 109.528 35.1885 108.64C33.7879 107.752 32.6833 106.528 31.8709 104.967C31.0585 103.407 30.6543 101.61 30.6543 99.5855C30.6543 97.537 31.0585 95.7325 31.8709 94.168C32.6833 92.6076 33.7758 91.3832 35.1525 90.495C36.5252 89.6067 38.054 89.1626 39.7268 89.1626C40.8033 89.1626 41.7878 89.3266 42.6883 89.6507C43.5887 89.9748 44.3691 90.3869 45.0334 90.8871C45.6938 91.3872 46.21 91.8954 46.5702 92.4035C46.9304 92.9157 47.1145 93.3478 47.1145 93.6959L45.7658 94.184V91.4472C45.7658 90.799 45.9779 90.2549 46.4021 89.8148C46.8263 89.3907 47.3626 89.1706 48.0109 89.1706ZM40.4392 105.855C41.5397 105.855 42.5002 105.579 43.3246 105.031C44.149 104.483 44.7933 103.731 45.2576 102.782C45.7178 101.834 45.9499 100.77 45.9499 99.5975C45.9499 98.3972 45.7178 97.3249 45.2576 96.3726C44.7933 95.4244 44.153 94.6721 43.3246 94.124C42.5002 93.5758 41.5357 93.2998 40.4392 93.2998C39.3626 93.2998 38.4142 93.5758 37.5897 94.124C36.7653 94.6721 36.121 95.4244 35.6568 96.3726C35.1926 97.3209 34.9644 98.3972 34.9644 99.5975C34.9644 100.774 35.1966 101.834 35.6568 102.782C36.121 103.731 36.7613 104.483 37.5897 105.031C38.4142 105.579 39.3626 105.855 40.4392 105.855Z" fill="#395588"/>
<path d="M60.0119 107.316C60.0119 107.964 59.7918 108.508 59.3556 108.948C58.9194 109.384 58.3751 109.604 57.7228 109.604C57.0985 109.604 56.5742 109.384 56.15 108.948C55.7258 108.512 55.5137 107.968 55.5137 107.316V85.6456C55.5137 84.9974 55.7338 84.4533 56.17 84.0131C56.6062 83.577 57.1505 83.3569 57.8028 83.3569C58.4511 83.3569 58.9834 83.577 59.3956 84.0131C59.8078 84.4492 60.0159 84.9934 60.0159 85.6456V107.316H60.0119Z" fill="#395588"/>
<path d="M81.6809 89.1706C82.3293 89.1706 82.8696 89.3827 83.2938 89.8068C83.718 90.2309 83.9301 90.783 83.9301 91.4552V107.312C83.9301 107.96 83.718 108.504 83.2938 108.944C82.8696 109.38 82.3293 109.6 81.6809 109.6C81.0326 109.6 80.4924 109.38 80.0682 108.944C79.6439 108.508 79.4318 107.964 79.4318 107.312V105.475L80.2562 105.811C80.2562 106.135 80.0802 106.532 79.732 106.992C79.3798 107.456 78.9076 107.912 78.3073 108.36C77.707 108.808 76.9986 109.192 76.1902 109.504C75.3818 109.816 74.4974 109.972 73.5449 109.972C71.82 109.972 70.2593 109.528 68.8586 108.64C67.4579 107.752 66.3533 106.528 65.5409 104.967C64.7285 103.407 64.3203 101.61 64.3203 99.5855C64.3203 97.537 64.7285 95.7325 65.5409 94.168C66.3533 92.6076 67.4459 91.3832 68.8226 90.495C70.1952 89.6067 71.724 89.1626 73.3968 89.1626C74.4694 89.1626 75.4579 89.3266 76.3583 89.6507C77.2588 89.9748 78.0391 90.3869 78.7035 90.8871C79.3638 91.3872 79.8761 91.8954 80.2402 92.4035C80.6044 92.9157 80.7845 93.3478 80.7845 93.6959L79.4358 94.184V91.4472C79.4358 90.799 79.6479 90.2549 80.0721 89.8148C80.4923 89.3907 81.0326 89.1706 81.6809 89.1706ZM74.1092 105.855C75.2097 105.855 76.1702 105.579 76.9946 105.031C77.819 104.483 78.4633 103.731 78.9236 102.782C79.3878 101.834 79.6159 100.77 79.6159 99.5975C79.6159 98.3972 79.3838 97.3249 78.9236 96.3726C78.4593 95.4244 77.819 94.6721 76.9946 94.124C76.1702 93.5758 75.2057 93.2998 74.1092 93.2998C73.0327 93.2998 72.0842 93.5758 71.2598 94.124C70.4354 94.6721 69.791 95.4244 69.3268 96.3726C68.8626 97.3209 68.6345 98.3972 68.6345 99.5975C68.6345 100.774 68.8666 101.834 69.3268 102.782C69.791 103.731 70.4314 104.483 71.2598 105.031C72.0842 105.579 73.0327 105.855 74.1092 105.855Z" fill="#395588"/>
<path d="M97.62 109.976C95.8712 109.976 94.2944 109.756 92.8937 109.32C91.493 108.884 90.1563 108.116 88.8797 107.015C88.5555 106.739 88.3034 106.427 88.1313 106.079C87.9552 105.731 87.8672 105.379 87.8672 105.031C87.8672 104.455 88.0753 103.95 88.4875 103.514C88.8997 103.078 89.42 102.858 90.0443 102.858C90.5205 102.858 90.9447 103.006 91.3209 103.306C92.2694 104.082 93.2139 104.671 94.1503 105.067C95.0868 105.467 96.2434 105.667 97.62 105.667C98.5445 105.667 99.3929 105.523 100.169 105.235C100.946 104.947 101.57 104.559 102.042 104.074C102.518 103.586 102.755 103.03 102.755 102.406C102.755 101.658 102.53 101.018 102.078 100.493C101.63 99.9693 100.942 99.5252 100.017 99.1611C99.0928 98.801 97.9162 98.5169 96.4915 98.3168C95.1428 98.1168 93.9542 97.8127 92.9297 97.3965C91.9052 96.9844 91.0488 96.4603 90.3604 95.8201C89.6721 95.1839 89.1558 94.4317 88.8037 93.5715C88.4515 92.7072 88.2794 91.739 88.2794 90.6667C88.2794 89.0422 88.6956 87.6538 89.536 86.5055C90.3724 85.3571 91.505 84.4809 92.9297 83.8807C94.3544 83.2806 95.9312 82.9805 97.6561 82.9805C99.2809 82.9805 100.786 83.2245 102.174 83.7127C103.563 84.2008 104.692 84.817 105.568 85.5692C106.292 86.1454 106.657 86.8056 106.657 87.5578C106.657 88.1059 106.444 88.6061 106.02 89.0582C105.596 89.5063 105.096 89.7344 104.519 89.7344C104.143 89.7344 103.807 89.6223 103.507 89.3983C103.107 89.0502 102.57 88.7181 101.894 88.406C101.218 88.0939 100.505 87.8299 99.7571 87.6178C99.0087 87.4057 98.3084 87.2977 97.6561 87.2977C96.5795 87.2977 95.6751 87.4337 94.9387 87.7098C94.2023 87.9859 93.6461 88.358 93.2699 88.8341C92.8937 89.3103 92.7096 89.8584 92.7096 90.4826C92.7096 91.2308 92.9257 91.851 93.3659 92.3391C93.8021 92.8273 94.4344 93.2154 95.2589 93.4994C96.0833 93.7875 97.0718 94.0436 98.2203 94.2677C99.7211 94.5438 101.038 94.8678 102.174 95.244C103.311 95.6201 104.255 96.1002 105.004 96.6884C105.756 97.2765 106.316 98.0127 106.693 98.901C107.069 99.7892 107.257 100.87 107.257 102.142C107.257 103.766 106.809 105.167 105.908 106.339C105.008 107.515 103.827 108.416 102.362 109.04C100.902 109.664 99.3209 109.976 97.62 109.976Z" fill="#395588"/>
<path d="M116.255 107.316C116.255 107.964 116.019 108.508 115.542 108.948C115.066 109.384 114.518 109.604 113.894 109.604C113.193 109.604 112.629 109.384 112.205 108.948C111.78 108.512 111.568 107.968 111.568 107.316V85.6456C111.568 84.9974 111.792 84.4533 112.245 84.0131C112.693 83.577 113.269 83.3569 113.97 83.3569C114.57 83.3569 115.102 83.577 115.562 84.0131C116.027 84.4492 116.255 84.9934 116.255 85.6456V107.316Z" fill="#395588"/>
<path d="M124.244 83.3252C124.592 83.3252 124.96 83.4172 125.349 83.6053C125.737 83.7933 126.029 84.0374 126.229 84.3375L135.342 98.3575L133.469 98.2814L142.805 84.3375C143.282 83.6613 143.894 83.3252 144.642 83.3252C145.243 83.3252 145.779 83.5373 146.255 83.9614C146.731 84.3855 146.967 84.9377 146.967 85.6099V107.316C146.967 107.964 146.755 108.508 146.331 108.948C145.907 109.385 145.343 109.605 144.642 109.605C143.942 109.605 143.374 109.385 142.937 108.948C142.501 108.512 142.281 107.968 142.281 107.316V89.659L143.742 89.9951L136.094 101.654C135.87 101.93 135.586 102.167 135.25 102.367C134.913 102.567 134.569 102.655 134.217 102.631C133.893 102.655 133.561 102.567 133.225 102.367C132.888 102.167 132.604 101.93 132.38 101.654L125.217 90.3312L126.193 88.3426V107.312C126.193 107.96 125.993 108.504 125.593 108.944C125.193 109.381 124.668 109.601 124.016 109.601C123.392 109.601 122.879 109.381 122.479 108.944C122.079 108.508 121.879 107.964 121.879 107.312V85.6058C121.879 84.9817 122.111 84.4455 122.571 83.9934C123.035 83.5493 123.592 83.3252 124.244 83.3252Z" fill="#395588"/>
</svg>
